<svg xmlns="http://www.w3.org/2000/svg" viewBox="0 0 200 200" fill="none" shape-rendering="auto"><desc>"Fun Emoji Set" by "Davis Uche", licensed under "CC BY 4.0". / Remix of the original. - Created with dicebear.com</desc><metadata xmlns:dc="http://purl.org/dc/elements/1.1/" xmlns:cc="http://creativecommons.org/ns#" xmlns:rdf="http://www.w3.org/1999/02/22-rdf-syntax-ns#"><rdf:RDF><cc:Work><dc:title>Fun Emoji Set</dc:title><dc:creator><cc:Agent rdf:about="https://www.instagram.com/davedirect3/"><dc:title>Davis Uche</dc:title></cc:Agent></dc:creator><dc:source>https://www.figma.com/community/file/968125295144990435</dc:source><cc:license rdf:resource="https://creativecommons.org/licenses/by/4.0/" /></cc:Work></rdf:RDF></metadata><mask id="viewboxMask"><rect width="200" height="200" rx="0" ry="0" x="0" y="0" fill="#fff" /></mask><g mask="url(#viewboxMask)"><rect fill="#059ff2" width="200" height="200" x="0" y="0" /><g transform="matrix(1.5625 0 0 1.5625 37.5 110.94)"><path fill-rule="evenodd" clip-rule="evenodd" d="M103.74-7.96V.67c-.16.12-.33.22-.5.3L87.07 9.47l-1.89 21.13c-.47 5.03-3.69 9.67-6.32 13.6L89.37 53a29.19 29.19 0 0 1-7.57 3.33l-7.9-6.68a27.93 27.93 0 0 1-15.79 6.56l-7.75.64c-7.43.63-14.9.63-22.33 0l-7.97-.67a28 28 0 0 1-14.9-5.88l-7.04 5.97a30.02 30.02 0 0 1-7.52-3.3l9.27-7.9C-3.22 40.97-6.7 36-7.2 30.57L-9.17 8.54l-14.15-7.5c-.22-.1-.43-.23-.61-.4v-8.62l19.75 9.9h88.26l19.66-9.87Z" fill="#000" style="mix-blend-mode:soft-light" opacity=".4"/><g fill="#ECF5F8"><path fill-rule="evenodd" clip-rule="evenodd" d="m58.05 53.27-7.77.65c-7.42.62-14.88.62-22.3 0L20 53.24a28.05 28.05 0 0 1-17.48-8.1 28.29 28.29 0 0 1-8.2-17.5L-8.24-1.02H86.3l-2.56 28.67a28.32 28.32 0 0 1-8.2 17.5 28.08 28.08 0 0 1-17.48 8.12Z"/><path fill-rule="evenodd" clip-rule="evenodd" d="M103.26-1.96 82.92 7.8l-3.19-6.66 24.08-12.06a.82.82 0 0 1 1.19.75l-.12 5.76a2.86 2.86 0 0 1-1.62 2.44ZM-23.26-1.96-2.92 7.8.27 1.15-23.81-10.9a.82.82 0 0 0-1.19.75l.12 5.76a2.86 2.86 0 0 0 1.62 2.44Z"/><path d="m74.16 37.33 17 14.37a.87.87 0 0 1 .11 1.22l-1.88 2.25a3.6 3.6 0 0 1-5.1.44L69.4 43.02l4.71-5.62.06-.07ZM10.25 43.07l-14.9 12.6a3.6 3.6 0 0 1-5.1-.45l-1.88-2.25a.87.87 0 0 1 .1-1.22L5.48 37.38l4.71 5.63.05.06Z"/></g><path fill-rule="evenodd" clip-rule="evenodd" d="M39.1 48.58c-3.34 0-6.72-.13-10.04-.41l-7.42-.62A22.24 22.24 0 0 1 7.8 41.1c-3.71-3.71-6-8.63-6.47-13.87L-.73 4.78h79.51l-2.02 22.46a22.41 22.41 0 0 1-6.48 13.89c-3.72 3.71-8.63 5.99-13.87 6.42l-7.22.62c-3.35.34-6.75.41-10.1.41Z" fill="#E1EFF5"/><path d="M4.68 10.04c10.38 9.16 57.66 9.76 69.09 0a333.93 333.93 0 0 1-69.09 0ZM6.44 22.82c9.85 9.15 54.73 9.76 65.57 0a301.86 301.86 0 0 1-65.56 0ZM9.37 35.59c8.95 9.15 49.84 9.76 59.71 0a250.49 250.49 0 0 1-59.71 0Z" style="mix-blend-mode:soft-light" opacity=".8" fill="#000"/></g><g transform="matrix(1.5625 0 0 1.5625 31.25 59.38)"><g fill-rule="evenodd" clip-rule="evenodd"><path d="m7.3-9.5 1.82-1.6L19.18 3.35l17.5-1.54-7.85 15.71 9.31 14.07-1.8 1.58-17.32-2.23L5.76 42.48 2.82 24.74l-15.06-9.03 1.82-1.58 13.77-6.5L7.3-9.52Z" fill="#2B8DD6"/><path d="M9.11-11.1 21.63 1.24 39.13-.3 31.27 15.4l6.86 16.17-17.36-2.61L7.52 40.5 4.64 23.16l-15.06-9.04 15.59-8.1L9.1-11.08Z" fill="#70CDF2"/><path opacity=".4" d="M10.27-8 20.64 3.03 35.35 1.2 18.37 5.67l-8.9-9.8.8-3.87Z" fill="#fff"/><path d="m83.18-9.5-1.8-1.6L71.3 3.35 53.8 1.8l7.85 15.71-9.31 14.07 1.82 1.58 17.32-2.23 13.24 11.55 2.94-17.74 15.06-9.03-1.8-1.58-13.8-6.5-3.94-17.13Z" fill="#2B8DD6"/><path d="M81.38-11.1 68.87 1.24 51.36-.3l7.86 15.72-6.88 16.17 17.38-2.61L82.96 40.5l2.9-17.34 15.06-9.04-15.6-8.1-3.94-17.11Z" fill="#70CDF2"/><path opacity=".4" d="M80.2-8 69.85 3.03 55.14 1.2l16.99 4.47L81-4.13 80.21-8Z" fill="#fff"/></g></g></g></svg>